<mxfile host="drawio-plugin" modified="2023-12-10T12:11:22.977Z" agent="5.0 (Windows NT 10.0; Win64; x64) AppleWebKit/537.36 (KHTML, like Gecko) Chrome/111.0.0.0 Safari/537.36" etag="eKmCxIGZybudUPErYbZB" version="20.5.3" type="embed"><diagram name="Страница — 1" id="57ttNkiKbghl4LJ9TtUq"><mxGraphModel dx="940" dy="422" grid="1" gridSize="10" guides="1" tooltips="1" connect="1" arrows="1" fold="1" page="1" pageScale="1" pageWidth="827" pageHeight="1169" math="0" shadow="0"><root><mxCell id="0"/><mxCell id="1" parent="0"/><mxCell id="8VLp1KwTuxryVoV7E4qy-13" value="start local tx" style="edgeStyle=orthogonalEdgeStyle;rounded=0;orthogonalLoop=1;jettySize=auto;html=1;exitX=1;exitY=0.25;exitDx=0;exitDy=0;entryX=0.5;entryY=0;entryDx=0;entryDy=0;" parent="1" source="8VLp1KwTuxryVoV7E4qy-1" target="8VLp1KwTuxryVoV7E4qy-5" edge="1"><mxGeometry relative="1" as="geometry"/></mxCell><mxCell id="8VLp1KwTuxryVoV7E4qy-14" value="start local tx" style="edgeStyle=orthogonalEdgeStyle;rounded=0;orthogonalLoop=1;jettySize=auto;html=1;exitX=0;exitY=0.25;exitDx=0;exitDy=0;entryX=0.5;entryY=0;entryDx=0;entryDy=0;" parent="1" source="8VLp1KwTuxryVoV7E4qy-1" target="8VLp1KwTuxryVoV7E4qy-3" edge="1"><mxGeometry relative="1" as="geometry"><Array as="points"><mxPoint x="140" y="75"/></Array></mxGeometry></mxCell><mxCell id="8VLp1KwTuxryVoV7E4qy-27" value="start local tx" style="edgeStyle=orthogonalEdgeStyle;rounded=0;orthogonalLoop=1;jettySize=auto;html=1;exitX=0.5;exitY=1;exitDx=0;exitDy=0;entryX=0.5;entryY=0;entryDx=0;entryDy=0;" parent="1" source="8VLp1KwTuxryVoV7E4qy-1" target="8VLp1KwTuxryVoV7E4qy-4" edge="1"><mxGeometry relative="1" as="geometry"/></mxCell><mxCell id="8VLp1KwTuxryVoV7E4qy-1" value="manager" style="rounded=1;whiteSpace=wrap;html=1;" parent="1" vertex="1"><mxGeometry x="350" y="60" width="100" height="60" as="geometry"/></mxCell><mxCell id="8VLp1KwTuxryVoV7E4qy-3" value="worker" style="rounded=1;whiteSpace=wrap;html=1;" parent="1" vertex="1"><mxGeometry x="80" y="200" width="120" height="50" as="geometry"/></mxCell><mxCell id="8VLp1KwTuxryVoV7E4qy-4" value="worker" style="rounded=1;whiteSpace=wrap;html=1;" parent="1" vertex="1"><mxGeometry x="340" y="280" width="120" height="50" as="geometry"/></mxCell><mxCell id="8VLp1KwTuxryVoV7E4qy-5" value="worker" style="rounded=1;whiteSpace=wrap;html=1;" parent="1" vertex="1"><mxGeometry x="640" y="200" width="120" height="50" as="geometry"/></mxCell><mxCell id="8VLp1KwTuxryVoV7E4qy-20" value="manager" style="rounded=1;whiteSpace=wrap;html=1;" parent="1" vertex="1"><mxGeometry x="344" y="400" width="100" height="60" as="geometry"/></mxCell><mxCell id="8VLp1KwTuxryVoV7E4qy-21" value="returns tx status" style="edgeStyle=orthogonalEdgeStyle;rounded=0;orthogonalLoop=1;jettySize=auto;html=1;exitX=0.5;exitY=0;exitDx=0;exitDy=0;entryX=0;entryY=0.75;entryDx=0;entryDy=0;fillColor=#008a00;strokeColor=#005700;" parent="1" source="8VLp1KwTuxryVoV7E4qy-22" target="8VLp1KwTuxryVoV7E4qy-20" edge="1"><mxGeometry relative="1" as="geometry"/></mxCell><mxCell id="8VLp1KwTuxryVoV7E4qy-22" value="worker" style="rounded=1;whiteSpace=wrap;html=1;" parent="1" vertex="1"><mxGeometry x="74" y="540" width="120" height="50" as="geometry"/></mxCell><mxCell id="8VLp1KwTuxryVoV7E4qy-28" value="returns tx status" style="edgeStyle=orthogonalEdgeStyle;rounded=0;orthogonalLoop=1;jettySize=auto;html=1;exitX=0.5;exitY=0;exitDx=0;exitDy=0;entryX=0.5;entryY=1;entryDx=0;entryDy=0;fillColor=#008a00;strokeColor=#005700;" parent="1" source="8VLp1KwTuxryVoV7E4qy-24" target="8VLp1KwTuxryVoV7E4qy-20" edge="1"><mxGeometry relative="1" as="geometry"/></mxCell><mxCell id="8VLp1KwTuxryVoV7E4qy-24" value="worker" style="rounded=1;whiteSpace=wrap;html=1;" parent="1" vertex="1"><mxGeometry x="334" y="620" width="120" height="50" as="geometry"/></mxCell><mxCell id="8VLp1KwTuxryVoV7E4qy-25" value="returns tx status" style="edgeStyle=orthogonalEdgeStyle;rounded=0;orthogonalLoop=1;jettySize=auto;html=1;exitX=0.5;exitY=0;exitDx=0;exitDy=0;entryX=1;entryY=0.75;entryDx=0;entryDy=0;fillColor=#fad9d5;strokeColor=#ae4132;" parent="1" source="8VLp1KwTuxryVoV7E4qy-26" target="8VLp1KwTuxryVoV7E4qy-20" edge="1"><mxGeometry relative="1" as="geometry"/></mxCell><mxCell id="8VLp1KwTuxryVoV7E4qy-26" value="worker" style="rounded=1;whiteSpace=wrap;html=1;" parent="1" vertex="1"><mxGeometry x="634" y="540" width="120" height="50" as="geometry"/></mxCell><mxCell id="8VLp1KwTuxryVoV7E4qy-29" value="rollback tx" style="edgeStyle=orthogonalEdgeStyle;rounded=0;orthogonalLoop=1;jettySize=auto;html=1;exitX=1;exitY=0.5;exitDx=0;exitDy=0;entryX=0.5;entryY=0;entryDx=0;entryDy=0;" parent="1" source="8VLp1KwTuxryVoV7E4qy-32" target="8VLp1KwTuxryVoV7E4qy-34" edge="1"><mxGeometry relative="1" as="geometry"/></mxCell><mxCell id="8VLp1KwTuxryVoV7E4qy-31" value="rollback tx" style="edgeStyle=orthogonalEdgeStyle;rounded=0;orthogonalLoop=1;jettySize=auto;html=1;exitX=0.5;exitY=1;exitDx=0;exitDy=0;entryX=0.5;entryY=0;entryDx=0;entryDy=0;" parent="1" source="8VLp1KwTuxryVoV7E4qy-32" target="8VLp1KwTuxryVoV7E4qy-33" edge="1"><mxGeometry relative="1" as="geometry"/></mxCell><mxCell id="8VLp1KwTuxryVoV7E4qy-36" value="rollback tx" style="edgeStyle=orthogonalEdgeStyle;rounded=0;orthogonalLoop=1;jettySize=auto;html=1;exitX=0;exitY=0.5;exitDx=0;exitDy=0;entryX=0.5;entryY=0;entryDx=0;entryDy=0;" parent="1" source="8VLp1KwTuxryVoV7E4qy-32" target="8VLp1KwTuxryVoV7E4qy-35" edge="1"><mxGeometry relative="1" as="geometry"/></mxCell><mxCell id="8VLp1KwTuxryVoV7E4qy-32" value="manager" style="rounded=1;whiteSpace=wrap;html=1;" parent="1" vertex="1"><mxGeometry x="344" y="720" width="100" height="60" as="geometry"/></mxCell><mxCell id="8VLp1KwTuxryVoV7E4qy-33" value="worker" style="rounded=1;whiteSpace=wrap;html=1;" parent="1" vertex="1"><mxGeometry x="334" y="940" width="120" height="50" as="geometry"/></mxCell><mxCell id="8VLp1KwTuxryVoV7E4qy-34" value="worker" style="rounded=1;whiteSpace=wrap;html=1;" parent="1" vertex="1"><mxGeometry x="634" y="860" width="120" height="50" as="geometry"/></mxCell><mxCell id="8VLp1KwTuxryVoV7E4qy-35" value="worker" style="rounded=1;whiteSpace=wrap;html=1;" parent="1" vertex="1"><mxGeometry x="74" y="860" width="120" height="50" as="geometry"/></mxCell><mxCell id="8VLp1KwTuxryVoV7E4qy-47" value="saves tx" style="edgeStyle=orthogonalEdgeStyle;rounded=0;orthogonalLoop=1;jettySize=auto;html=1;exitX=0.75;exitY=1;exitDx=0;exitDy=0;entryX=1;entryY=0;entryDx=0;entryDy=0;" parent="1" source="8VLp1KwTuxryVoV7E4qy-37" target="8VLp1KwTuxryVoV7E4qy-40" edge="1"><mxGeometry relative="1" as="geometry"/></mxCell><mxCell id="8VLp1KwTuxryVoV7E4qy-49" value="success" style="edgeStyle=orthogonalEdgeStyle;rounded=0;orthogonalLoop=1;jettySize=auto;html=1;exitX=0;exitY=0.5;exitDx=0;exitDy=0;fillColor=#008a00;strokeColor=#005700;" parent="1" source="8VLp1KwTuxryVoV7E4qy-37" target="8VLp1KwTuxryVoV7E4qy-38" edge="1"><mxGeometry relative="1" as="geometry"/></mxCell><mxCell id="8VLp1KwTuxryVoV7E4qy-54" value="commits tx" style="edgeStyle=orthogonalEdgeStyle;rounded=0;orthogonalLoop=1;jettySize=auto;html=1;exitX=0.25;exitY=1;exitDx=0;exitDy=0;entryX=0;entryY=0;entryDx=0;entryDy=0;fillColor=#1ba1e2;strokeColor=#006EAF;" parent="1" source="8VLp1KwTuxryVoV7E4qy-37" target="8VLp1KwTuxryVoV7E4qy-40" edge="1"><mxGeometry relative="1" as="geometry"/></mxCell><mxCell id="8VLp1KwTuxryVoV7E4qy-37" value="worker" style="rounded=1;whiteSpace=wrap;html=1;" parent="1" vertex="1"><mxGeometry x="600" y="1280" width="199" height="151" as="geometry"/></mxCell><mxCell id="8VLp1KwTuxryVoV7E4qy-39" value="start tx" style="edgeStyle=orthogonalEdgeStyle;rounded=0;orthogonalLoop=1;jettySize=auto;html=1;exitX=1;exitY=0.25;exitDx=0;exitDy=0;entryX=0;entryY=0.25;entryDx=0;entryDy=0;" parent="1" source="8VLp1KwTuxryVoV7E4qy-38" target="8VLp1KwTuxryVoV7E4qy-37" edge="1"><mxGeometry relative="1" as="geometry"/></mxCell><mxCell id="8VLp1KwTuxryVoV7E4qy-51" value="commit tx" style="edgeStyle=orthogonalEdgeStyle;rounded=0;orthogonalLoop=1;jettySize=auto;html=1;exitX=1;exitY=0.75;exitDx=0;exitDy=0;entryX=0;entryY=0.75;entryDx=0;entryDy=0;fillColor=#1ba1e2;strokeColor=#006EAF;" parent="1" source="8VLp1KwTuxryVoV7E4qy-38" target="8VLp1KwTuxryVoV7E4qy-37" edge="1"><mxGeometry relative="1" as="geometry"/></mxCell><mxCell id="8VLp1KwTuxryVoV7E4qy-38" value="manager" style="rounded=1;whiteSpace=wrap;html=1;" parent="1" vertex="1"><mxGeometry x="34" y="1280" width="200" height="151" as="geometry"/></mxCell><mxCell id="8VLp1KwTuxryVoV7E4qy-40" value="map with txs" style="rounded=0;whiteSpace=wrap;html=1;" parent="1" vertex="1"><mxGeometry x="640" y="1480" width="120" height="60" as="geometry"/></mxCell><mxCell id="8VLp1KwTuxryVoV7E4qy-55" value="saves tx" style="edgeStyle=orthogonalEdgeStyle;rounded=0;orthogonalLoop=1;jettySize=auto;html=1;exitX=0.75;exitY=1;exitDx=0;exitDy=0;entryX=1;entryY=0;entryDx=0;entryDy=0;" parent="1" source="8VLp1KwTuxryVoV7E4qy-58" edge="1"><mxGeometry relative="1" as="geometry"><mxPoint x="760" y="1800" as="targetPoint"/></mxGeometry></mxCell><mxCell id="8VLp1KwTuxryVoV7E4qy-56" value="failure" style="edgeStyle=orthogonalEdgeStyle;rounded=0;orthogonalLoop=1;jettySize=auto;html=1;exitX=0;exitY=0.5;exitDx=0;exitDy=0;fillColor=#fad9d5;strokeColor=#ae4132;" parent="1" source="8VLp1KwTuxryVoV7E4qy-58" target="9" edge="1"><mxGeometry relative="1" as="geometry"><mxPoint x="340" y="1675.5" as="targetPoint"/></mxGeometry></mxCell><mxCell id="8VLp1KwTuxryVoV7E4qy-57" value="rollbacks tx" style="edgeStyle=orthogonalEdgeStyle;rounded=0;orthogonalLoop=1;jettySize=auto;html=1;exitX=0.25;exitY=1;exitDx=0;exitDy=0;entryX=0;entryY=0;entryDx=0;entryDy=0;fillColor=#1ba1e2;strokeColor=#006EAF;" parent="1" source="8VLp1KwTuxryVoV7E4qy-58" edge="1"><mxGeometry relative="1" as="geometry"><mxPoint x="640" y="1800" as="targetPoint"/></mxGeometry></mxCell><mxCell id="8VLp1KwTuxryVoV7E4qy-58" value="worker" style="rounded=1;whiteSpace=wrap;html=1;" parent="1" vertex="1"><mxGeometry x="600" y="1600" width="199" height="151" as="geometry"/></mxCell><mxCell id="8VLp1KwTuxryVoV7E4qy-59" value="start tx" style="edgeStyle=orthogonalEdgeStyle;rounded=0;orthogonalLoop=1;jettySize=auto;html=1;exitX=1;exitY=0.25;exitDx=0;exitDy=0;entryX=0;entryY=0.25;entryDx=0;entryDy=0;" parent="1" source="9" target="8VLp1KwTuxryVoV7E4qy-58" edge="1"><mxGeometry relative="1" as="geometry"><mxPoint x="340" y="1637.75" as="sourcePoint"/></mxGeometry></mxCell><mxCell id="8VLp1KwTuxryVoV7E4qy-60" value="rollback tx" style="edgeStyle=orthogonalEdgeStyle;rounded=0;orthogonalLoop=1;jettySize=auto;html=1;exitX=1;exitY=0.75;exitDx=0;exitDy=0;entryX=0;entryY=0.75;entryDx=0;entryDy=0;fillColor=#1ba1e2;strokeColor=#006EAF;" parent="1" source="9" target="8VLp1KwTuxryVoV7E4qy-58" edge="1"><mxGeometry relative="1" as="geometry"><mxPoint x="340" y="1713.25" as="sourcePoint"/></mxGeometry></mxCell><mxCell id="8VLp1KwTuxryVoV7E4qy-62" value="map with txs" style="rounded=0;whiteSpace=wrap;html=1;" parent="1" vertex="1"><mxGeometry x="639.5" y="1800" width="120" height="60" as="geometry"/></mxCell><mxCell id="9" value="manager" style="rounded=1;whiteSpace=wrap;html=1;" vertex="1" parent="1"><mxGeometry x="30" y="1600" width="200" height="151" as="geometry"/></mxCell></root></mxGraphModel></diagram></mxfile>